<svg width="15" height="15" viewBox="0 0 15 15" fill="none" xmlns="http://www.w3.org/2000/svg">
<path d="M11.5949 1.6499H2.7549C2.2024 1.6499 1.6499 2.14715 1.6499 2.7549V4.41793C1.6499 4.81573 1.88748 5.15828 2.2024 5.35165V11.5949C2.2024 12.2027 2.81015 12.6999 3.3074 12.6999H11.0424C11.5397 12.6999 12.1474 12.2027 12.1474 11.5949V5.35165C12.4623 5.15828 12.6999 4.81573 12.6999 4.41793V2.7549C12.6999 2.14715 12.1474 1.6499 11.5949 1.6499ZM8.2799 8.2799H6.0699C5.76603 8.2799 5.5174 8.03128 5.5174 7.7274C5.5174 7.42353 5.76603 7.1749 6.0699 7.1749H8.2799C8.58378 7.1749 8.8324 7.42353 8.8324 7.7274C8.8324 8.03128 8.58378 8.2799 8.2799 8.2799ZM11.5949 4.4124H2.7549V2.7549H11.5949V4.4124Z" fill="white"/>
</svg>
