<svg width="15" height="15" viewBox="0 0 15 15" fill="none" xmlns="http://www.w3.org/2000/svg">
<g clip-path="url(#clip0_428_191)">
<path d="M12.7 4.90005C13.028 4.89995 13.3439 5.02381 13.5844 5.24682C13.8248 5.46983 13.9722 5.7755 13.9968 6.10255L14 6.20005V12.05C14.0001 12.378 13.8762 12.6939 13.6532 12.9344C13.4302 13.1749 13.1246 13.3222 12.7975 13.3468L12.7 13.35H10.1C9.77203 13.3502 9.45613 13.2263 9.21564 13.0033C8.97516 12.7803 8.82785 12.4746 8.80325 12.1475L8.8 12.05V6.20005C8.7999 5.87207 8.92376 5.55618 9.14677 5.31569C9.36978 5.0752 9.67545 4.9279 10.0025 4.9033L10.1 4.90005H12.7ZM10.75 2.30005C11.0948 2.30005 11.4254 2.43701 11.6692 2.68081C11.913 2.92461 12.05 3.25527 12.05 3.60005H9.45C8.93283 3.60005 8.43684 3.80549 8.07114 4.17119C7.70545 4.53689 7.5 5.03288 7.5 5.55005V12.7H2.3C1.95522 12.7 1.62456 12.5631 1.38076 12.3193C1.13696 12.0755 1 11.7448 1 11.4V3.60005C1 3.25527 1.13696 2.92461 1.38076 2.68081C1.62456 2.43701 1.95522 2.30005 2.3 2.30005H10.75Z" fill="white"/>
</g>
<defs>
<clipPath id="clip0_428_191">
<rect width="13.5714" height="13.5714" fill="white" transform="translate(0.714355 0.714355)"/>
</clipPath>
</defs>
</svg>
