<svg width="15" height="15" viewBox="0 0 15 15" fill="none" xmlns="http://www.w3.org/2000/svg">
<g clip-path="url(#clip0_428_198)">
<path d="M11.4812 3.03125C10.1812 2.05625 10.3438 1 10.3438 1H2.625V11.1562C2.625 12.7 4.33125 14 5.875 14H12.375V3.4375C12.375 3.4375 11.725 3.275 11.4812 3.03125ZM6.6875 6.11875C5.95625 5.875 4.81875 5.46875 4.81875 4.575C4.9 3.925 5.875 3.4375 5.875 3.275V2.625H6.6875V3.19375C7.5 3.275 8.15 3.51875 8.23125 3.51875L7.9875 4.25C7.9875 4.25 7.41875 4.00625 6.76875 4.00625C6.2 4.00625 5.875 4.25 5.79375 4.65625C5.79375 4.9 6.2 5.14375 6.85 5.3875C8.06875 5.79375 8.39375 6.28125 8.39375 6.93125C8.39375 7.5 8.3125 8.23125 6.6875 8.39375V9.125H5.875V8.475C5.875 8.39375 4.7375 8.06875 4.65625 8.06875L5.0625 7.3375C5.0625 7.3375 5.95625 7.74375 6.6875 7.6625C7.41875 7.58125 7.74375 7.175 7.74375 6.85C7.825 6.60625 7.41875 6.3625 6.6875 6.11875ZM11.5625 13.1875H5.875C5.0625 13.1875 4.4125 12.7 4.25 12.1312C4.16875 11.8875 4.25 11.5625 4.575 11.5625H9.9375V3.19375C10.75 3.68125 11.5625 4.0875 11.5625 4.25V13.1875Z" fill="white"/>
</g>
<defs>
<clipPath id="clip0_428_198">
<rect width="13" height="13" fill="white" transform="translate(2 1)"/>
</clipPath>
</defs>
</svg>
