<svg width="14" height="14" viewBox="0 0 14 14" fill="none" xmlns="http://www.w3.org/2000/svg">
<g clip-path="url(#clip0_428_164)">
<path d="M9.91658 11.0001C9.26908 11.0001 8.74992 11.5192 8.74992 12.1667C8.74992 12.4762 8.87283 12.7729 9.09163 12.9917C9.31042 13.2105 9.60717 13.3334 9.91658 13.3334C10.226 13.3334 10.5228 13.2105 10.7415 12.9917C10.9603 12.7729 11.0833 12.4762 11.0833 12.1667C11.0833 11.8573 10.9603 11.5606 10.7415 11.3418C10.5228 11.123 10.226 11.0001 9.91658 11.0001ZM0.583252 1.66675V2.83341H1.74992L3.84992 7.26091L3.05659 8.69008C2.96909 8.85341 2.91659 9.04591 2.91659 9.25008C2.91659 9.5595 3.0395 9.85625 3.25829 10.075C3.47709 10.2938 3.77383 10.4167 4.08325 10.4167H11.0833V9.25008H4.32825C4.28957 9.25008 4.25248 9.23472 4.22513 9.20737C4.19778 9.18002 4.18242 9.14293 4.18242 9.10425C4.18242 9.07508 4.18825 9.05175 4.19992 9.03425L4.72492 8.08341H9.07075C9.50825 8.08341 9.89325 7.83841 10.0916 7.48258L12.1799 3.70841C12.2208 3.61508 12.2499 3.51591 12.2499 3.41675C12.2499 3.26204 12.1885 3.11367 12.0791 3.00427C11.9697 2.89487 11.8213 2.83341 11.6666 2.83341H3.03909L2.49075 1.66675M4.08325 11.0001C3.43575 11.0001 2.91659 11.5192 2.91659 12.1667C2.91659 12.4762 3.0395 12.7729 3.25829 12.9917C3.47709 13.2105 3.77383 13.3334 4.08325 13.3334C4.39267 13.3334 4.68942 13.2105 4.90821 12.9917C5.127 12.7729 5.24992 12.4762 5.24992 12.1667C5.24992 11.8573 5.127 11.5606 4.90821 11.3418C4.68942 11.123 4.39267 11.0001 4.08325 11.0001Z" fill="white"/>
</g>
<defs>
<clipPath id="clip0_428_164">
<rect width="12.6667" height="12.6667" fill="white" transform="translate(0.666748 0.666748)"/>
</clipPath>
</defs>
</svg>
