<svg width="15" height="15" viewBox="0 0 15 15" fill="none" xmlns="http://www.w3.org/2000/svg">
<path d="M12.0239 4.10712C12.0239 2.88117 9.9526 1.84521 7.50013 1.84521C5.04766 1.84521 2.97632 2.88117 2.97632 4.10712V5.23807C2.97632 6.46402 5.04766 7.49998 7.50013 7.49998C9.9526 7.49998 12.0239 6.46402 12.0239 5.23807V4.10712ZM7.50013 11.4583C5.04766 11.4583 2.97632 10.4224 2.97632 9.19641V10.8928C2.97632 12.1188 5.04766 13.1547 7.50013 13.1547C9.9526 13.1547 12.0239 12.1188 12.0239 10.8928V9.19641C12.0239 10.4224 9.9526 11.4583 7.50013 11.4583Z" fill="white"/>
<path d="M12.0239 6.36914C12.0239 7.59509 9.9526 8.63105 7.50013 8.63105C5.04766 8.63105 2.97632 7.59509 2.97632 6.36914V8.06557C2.97632 9.29152 5.04766 10.3275 7.50013 10.3275C9.9526 10.3275 12.0239 9.29152 12.0239 8.06557V6.36914Z" fill="white"/>
</svg>
