<svg width="15" height="15" viewBox="0 0 15 15" fill="none" xmlns="http://www.w3.org/2000/svg">
<path d="M11.6 3.19995C11.9183 3.19995 12.2235 3.32638 12.4485 3.55142C12.6736 3.77647 12.8 4.08169 12.8 4.39995V4.99995H9.2C8.40435 4.99995 7.64129 5.31602 7.07868 5.87863C6.51607 6.44124 6.2 7.2043 6.2 7.99995C6.2 8.7956 6.51607 9.55866 7.07868 10.1213C7.64129 10.6839 8.40435 11 9.2 11H12.8V11.6C12.8 11.9182 12.6736 12.2234 12.4485 12.4485C12.2235 12.6735 11.9183 12.8 11.6 12.8H3.2C2.88174 12.8 2.57652 12.6735 2.35147 12.4485C2.12643 12.2234 2 11.9182 2 11.6V4.39995C2 4.08169 2.12643 3.77647 2.35147 3.55142C2.57652 3.32638 2.88174 3.19995 3.2 3.19995H11.6ZM12.2 6.19995C12.5183 6.19995 12.8235 6.32638 13.0485 6.55142C13.2736 6.77647 13.4 7.08169 13.4 7.39995V8.59995C13.4 8.91821 13.2736 9.22344 13.0485 9.44848C12.8235 9.67352 12.5183 9.79995 12.2 9.79995H9.2C8.72261 9.79995 8.26477 9.61031 7.92721 9.27274C7.58964 8.93518 7.4 8.47734 7.4 7.99995C7.4 7.52256 7.58964 7.06472 7.92721 6.72716C8.26477 6.38959 8.72261 6.19995 9.2 6.19995H12.2ZM9.2 7.39995C9.04087 7.39995 8.88826 7.46317 8.77574 7.57569C8.66321 7.68821 8.6 7.84082 8.6 7.99995C8.6 8.15908 8.66321 8.31169 8.77574 8.42422C8.88826 8.53674 9.04087 8.59995 9.2 8.59995C9.35913 8.59995 9.51174 8.53674 9.62426 8.42422C9.73679 8.31169 9.8 8.15908 9.8 7.99995C9.8 7.84082 9.73679 7.68821 9.62426 7.57569C9.51174 7.46317 9.35913 7.39995 9.2 7.39995Z" fill="white"/>
</svg>
