<svg width="15" height="15" viewBox="0 0 15 15" fill="none" xmlns="http://www.w3.org/2000/svg">
<path d="M4.92296 6.92308C6.00629 6.92308 6.8845 6.04487 6.8845 4.96154C6.8845 3.87821 6.00629 3 4.92296 3C3.83964 3 2.96143 3.87821 2.96143 4.96154C2.96143 6.04487 3.83964 6.92308 4.92296 6.92308Z" fill="white"/>
<path d="M10.1539 6.92308C11.2372 6.92308 12.1155 6.04487 12.1155 4.96154C12.1155 3.87821 11.2372 3 10.1539 3C9.07059 3 8.19238 3.87821 8.19238 4.96154C8.19238 6.04487 9.07059 6.92308 10.1539 6.92308Z" fill="white"/>
<path d="M10.1538 7.5769C12.3181 7.5769 14.0769 8.74729 14.0769 10.1923V11.5H10.1538V10.1923C10.1538 9.2246 9.36269 8.38114 8.19231 7.92998C8.76769 7.70114 9.44115 7.5769 10.1538 7.5769ZM4.92308 7.5769C7.08731 7.5769 8.84615 8.74729 8.84615 10.1923V11.5H1V10.1923C1 8.74729 2.75885 7.5769 4.92308 7.5769Z" fill="white"/>
</svg>
