<svg width="10" height="10" viewBox="0 0 10 10" fill="none" xmlns="http://www.w3.org/2000/svg">
<g clip-path="url(#clip0_385_96)">
<path fill-rule="evenodd" clip-rule="evenodd" d="M5.44163 6.69166C5.32444 6.8087 5.16558 6.87444 4.99996 6.87444C4.83433 6.87444 4.67548 6.8087 4.55829 6.69166L2.20079 4.33499C2.0836 4.21775 2.01778 4.05875 2.01782 3.89297C2.01786 3.7272 2.08375 3.56823 2.201 3.45104C2.31825 3.33384 2.47725 3.26803 2.64302 3.26807C2.8088 3.26811 2.96777 3.334 3.08496 3.45124L4.99996 5.36624L6.91496 3.45124C7.03278 3.33734 7.19063 3.27427 7.3545 3.27561C7.51838 3.27696 7.67517 3.34262 7.7911 3.45844C7.90704 3.57427 7.97284 3.731 7.97434 3.89487C7.97584 4.05874 7.91292 4.21665 7.79913 4.33458L5.44204 6.69208L5.44163 6.69166Z" fill="#fff"/>
</g>
<defs>
<clipPath id="clip0_385_96">
<rect width="10" height="10" fill="white"/>
</clipPath>
</defs>
</svg>
